<svg xmlns="http://www.w3.org/2000/svg" viewBox="0 0 512 512" width="512" height="512">
  <defs>
    <linearGradient id="grad" x1="0%" y1="0%" x2="100%" y2="100%">
      <stop offset="0%" stop-color="#3b82f6" />
      <stop offset="100%" stop-color="#1e40af" />
    </linearGradient>
  </defs>
  <rect width="512" height="512" rx="120" fill="url(#grad)" />
  <!-- Eye Off / Spoiler Icon -->
  <g fill="none" stroke="#ffffff" stroke-linecap="round" stroke-linejoin="round" stroke-width="36">
    <path d="M112 112l288 288" />
    <path d="M217 149c12-3 25-5 39-5 95 0 160 68 176 112-6 17-23 48-52 74" />
    <path d="M318 318a80 80 0 01-113-113" />
    <path d="M141 184c-25 21-46 51-61 72 16 44 81 112 176 112 25 0 49-6 70-16" />
  </g>
</svg>
